<?xml version="1.0" encoding="utf-8" ?>
<svg baseProfile="full" height="600" version="1.1" width="800" xmlns="http://www.w3.org/2000/svg" xmlns:ev="http://www.w3.org/2001/xml-events" xmlns:xlink="http://www.w3.org/1999/xlink"><defs /><polygon fill="blue" opacity="0.5" points="0.0,100.0 0.0,300.0 200.0,300.0" stroke="black" /><polygon fill="blue" opacity="0.5" points="0.0,100.0 200.0,300.0 200.0,100.0" stroke="black" /><polygon fill="red" opacity="0.5" points="0.0,100.0 0.0,300.0 200.0,300.0" stroke="black" /><polygon fill="red" opacity="0.5" points="0.0,100.0 200.0,300.0 200.0,100.0" stroke="black" /><polygon fill="green" opacity="0.5" points="0.0,100.0 0.0,300.0 0.0,300.0" stroke="black" /><polygon fill="green" opacity="0.5" points="0.0,100.0 0.0,300.0 0.0,100.0" stroke="black" /><polygon fill="purple" opacity="0.5" points="200.0,100.0 200.0,300.0 200.0,300.0" stroke="black" /><polygon fill="purple" opacity="0.5" points="200.0,100.0 200.0,300.0 200.0,100.0" stroke="black" /><polygon fill="yellow" opacity="0.5" points="0.0,100.0 200.0,100.0 200.0,100.0" stroke="black" /><polygon fill="yellow" opacity="0.5" points="0.0,100.0 200.0,100.0 0.0,100.0" stroke="black" /><polygon fill="white" opacity="0.5" points="0.0,300.0 200.0,300.0 200.0,300.0" stroke="black" /><polygon fill="white" opacity="0.5" points="0.0,300.0 200.0,300.0 0.0,300.0" stroke="black" /><polygon fill="blue" opacity="0.5" points="146.92237183309317,86.22307026941314 106.92237183309317,235.50510257216823 253.43038997100768,285.85786437626905" stroke="black" /><polygon fill="blue" opacity="0.5" points="146.92237183309317,86.22307026941314 253.43038997100768,285.85786437626905 293.4303899710077,136.57583207351396" stroke="black" /><polygon fill="red" opacity="0.5" points="96.56961002899233,114.14213562373095 56.56961002899233,263.42416792648606 203.07762816690683,313.77692973058686" stroke="black" /><polygon fill="red" opacity="0.5" points="96.56961002899233,114.14213562373095 203.07762816690683,313.77692973058686 243.07762816690683,164.49489742783177" stroke="black" /><polygon fill="green" opacity="0.5" points="146.92237183309317,86.22307026941314 106.92237183309317,235.50510257216823 56.56961002899233,263.42416792648606" stroke="black" /><polygon fill="green" opacity="0.5" points="146.92237183309317,86.22307026941314 56.56961002899233,263.42416792648606 96.56961002899233,114.14213562373095" stroke="black" /><polygon fill="purple" opacity="0.5" points="293.4303899710077,136.57583207351396 253.43038997100768,285.85786437626905 203.07762816690683,313.77692973058686" stroke="black" /><polygon fill="purple" opacity="0.5" points="293.4303899710077,136.57583207351396 203.07762816690683,313.77692973058686 243.07762816690683,164.49489742783177" stroke="black" /><polygon fill="yellow" opacity="0.5" points="146.92237183309317,86.22307026941314 293.4303899710077,136.57583207351396 243.07762816690683,164.49489742783177" stroke="black" /><polygon fill="yellow" opacity="0.5" points="146.92237183309317,86.22307026941314 243.07762816690683,164.49489742783177 96.56961002899233,114.14213562373095" stroke="black" /><polygon fill="white" opacity="0.5" points="106.92237183309317,235.50510257216823 253.43038997100768,285.85786437626905 203.07762816690683,313.77692973058686" stroke="black" /><polygon fill="white" opacity="0.5" points="106.92237183309317,235.50510257216823 203.07762816690683,313.77692973058686 56.56961002899233,263.42416792648606" stroke="black" /><polygon fill="blue" opacity="0.5" points="279.28203230275506,102.43078061834693 223.856406460551,198.43078061834694 303.85640646055106,281.56921938165306" stroke="black" /><polygon fill="blue" opacity="0.5" points="279.28203230275506,102.43078061834693 303.85640646055106,281.56921938165306 359.2820323027551,185.56921938165303" stroke="black" /><polygon fill="red" opacity="0.5" points="196.14359353944894,118.43078061834693 140.7179676972449,214.43078061834697 220.71796769724492,297.56921938165306" stroke="black" /><polygon fill="red" opacity="0.5" points="196.14359353944894,118.43078061834693 220.71796769724492,297.56921938165306 276.143593539449,201.56921938165306" stroke="black" /><polygon fill="green" opacity="0.5" points="279.28203230275506,102.43078061834693 223.856406460551,198.43078061834694 140.7179676972449,214.43078061834697" stroke="black" /><polygon fill="green" opacity="0.5" points="279.28203230275506,102.43078061834693 140.7179676972449,214.43078061834697 196.14359353944894,118.43078061834693" stroke="black" /><polygon fill="purple" opacity="0.5" points="359.2820323027551,185.56921938165303 303.85640646055106,281.56921938165306 220.71796769724492,297.56921938165306" stroke="black" /><polygon fill="purple" opacity="0.5" points="359.2820323027551,185.56921938165303 220.71796769724492,297.56921938165306 276.143593539449,201.56921938165306" stroke="black" /><polygon fill="yellow" opacity="0.5" points="279.28203230275506,102.43078061834693 359.2820323027551,185.56921938165303 276.143593539449,201.56921938165306" stroke="black" /><polygon fill="yellow" opacity="0.5" points="279.28203230275506,102.43078061834693 276.143593539449,201.56921938165306 196.14359353944894,118.43078061834693" stroke="black" /><polygon fill="white" opacity="0.5" points="223.856406460551,198.43078061834694 303.85640646055106,281.56921938165306 220.71796769724492,297.56921938165306" stroke="black" /><polygon fill="white" opacity="0.5" points="223.856406460551,198.43078061834694 220.71796769724492,297.56921938165306 140.7179676972449,214.43078061834697" stroke="black" /><polygon fill="blue" opacity="0.5" points="386.80386719675124,138.19613280324873 335.60386719675125,189.39613280324875 350.6,276.8" stroke="black" /><polygon fill="blue" opacity="0.5" points="386.80386719675124,138.19613280324873 350.6,276.8 401.80000000000007,225.6" stroke="black" /><polygon fill="red" opacity="0.5" points="299.4,123.19999999999999 248.19999999999996,174.4 263.19613280324876,261.80386719675124" stroke="black" /><polygon fill="red" opacity="0.5" points="299.4,123.19999999999999 263.19613280324876,261.80386719675124 314.39613280324875,210.60386719675125" stroke="black" /><polygon fill="green" opacity="0.5" points="386.80386719675124,138.19613280324873 335.60386719675125,189.39613280324875 248.19999999999996,174.4" stroke="black" /><polygon fill="green" opacity="0.5" points="386.80386719675124,138.19613280324873 248.19999999999996,174.4 299.4,123.19999999999999" stroke="black" /><polygon fill="purple" opacity="0.5" points="401.80000000000007,225.6 350.6,276.8 263.19613280324876,261.80386719675124" stroke="black" /><polygon fill="purple" opacity="0.5" points="401.80000000000007,225.6 263.19613280324876,261.80386719675124 314.39613280324875,210.60386719675125" stroke="black" /><polygon fill="yellow" opacity="0.5" points="386.80386719675124,138.19613280324873 401.80000000000007,225.6 314.39613280324875,210.60386719675125" stroke="black" /><polygon fill="yellow" opacity="0.5" points="386.80386719675124,138.19613280324873 314.39613280324875,210.60386719675125 299.4,123.19999999999999" stroke="black" /><polygon fill="white" opacity="0.5" points="335.60386719675125,189.39613280324875 350.6,276.8 263.19613280324876,261.80386719675124" stroke="black" /><polygon fill="white" opacity="0.5" points="335.60386719675125,189.39613280324875 263.19613280324876,261.80386719675124 248.19999999999996,174.4" stroke="black" /><polygon fill="blue" opacity="0.5" points="467.1967009432686,178.51569959574203 431.724300404258,198.99569959574202 398.99569959574205,265.1881001347527" stroke="black" /><polygon fill="blue" opacity="0.5" points="467.1967009432686,178.51569959574203 398.99569959574205,265.1881001347527 434.46810013475266,244.70810013475267" stroke="black" /><polygon fill="red" opacity="0.5" points="401.00430040425795,134.8118998652473 365.53189986524734,155.29189986524733 332.8032990567314,221.48430040425797" stroke="black" /><polygon fill="red" opacity="0.5" points="401.00430040425795,134.8118998652473 332.8032990567314,221.48430040425797 368.275699595742,201.00430040425798" stroke="black" /><polygon fill="green" opacity="0.5" points="467.1967009432686,178.51569959574203 431.724300404258,198.99569959574202 365.53189986524734,155.29189986524733" stroke="black" /><polygon fill="green" opacity="0.5" points="467.1967009432686,178.51569959574203 365.53189986524734,155.29189986524733 401.00430040425795,134.8118998652473" stroke="black" /><polygon fill="purple" opacity="0.5" points="434.46810013475266,244.70810013475267 398.99569959574205,265.1881001347527 332.8032990567314,221.48430040425797" stroke="black" /><polygon fill="purple" opacity="0.5" points="434.46810013475266,244.70810013475267 332.8032990567314,221.48430040425797 368.275699595742,201.00430040425798" stroke="black" /><polygon fill="yellow" opacity="0.5" points="467.1967009432686,178.51569959574203 434.46810013475266,244.70810013475267 368.275699595742,201.00430040425798" stroke="black" /><polygon fill="yellow" opacity="0.5" points="467.1967009432686,178.51569959574203 368.275699595742,201.00430040425798 401.00430040425795,134.8118998652473" stroke="black" /><polygon fill="white" opacity="0.5" points="431.724300404258,198.99569959574202 398.99569959574205,265.1881001347527 332.8032990567314,221.48430040425797" stroke="black" /><polygon fill="white" opacity="0.5" points="431.724300404258,198.99569959574202 332.8032990567314,221.48430040425797 365.53189986524734,155.29189986524733" stroke="black" /><polygon fill="blue" opacity="0.5" points="526.6330364429247,210.1528104447686 510.24903644292465,214.5428900135601 455.57669229499544,246.7526187514802" stroke="black" /><polygon fill="blue" opacity="0.5" points="526.6330364429247,210.1528104447686 455.57669229499544,246.7526187514802 471.96069229499545,242.3625391826887" stroke="black" /><polygon fill="red" opacity="0.5" points="494.42330770500456,153.2473812485198 478.03930770500455,157.6374608173113 423.36696355707534,189.8471895552314" stroke="black" /><polygon fill="red" opacity="0.5" points="494.42330770500456,153.2473812485198 423.36696355707534,189.8471895552314 439.75096355707535,185.4571099864399" stroke="black" /><polygon fill="green" opacity="0.5" points="526.6330364429247,210.1528104447686 510.24903644292465,214.5428900135601 478.03930770500455,157.6374608173113" stroke="black" /><polygon fill="green" opacity="0.5" points="526.6330364429247,210.1528104447686 478.03930770500455,157.6374608173113 494.42330770500456,153.2473812485198" stroke="black" /><polygon fill="purple" opacity="0.5" points="471.96069229499545,242.3625391826887 455.57669229499544,246.7526187514802 423.36696355707534,189.8471895552314" stroke="black" /><polygon fill="purple" opacity="0.5" points="471.96069229499545,242.3625391826887 423.36696355707534,189.8471895552314 439.75096355707535,185.4571099864399" stroke="black" /><polygon fill="yellow" opacity="0.5" points="526.6330364429247,210.1528104447686 471.96069229499545,242.3625391826887 439.75096355707535,185.4571099864399" stroke="black" /><polygon fill="yellow" opacity="0.5" points="526.6330364429247,210.1528104447686 439.75096355707535,185.4571099864399 494.42330770500456,153.2473812485198" stroke="black" /><polygon fill="white" opacity="0.5" points="510.24903644292465,214.5428900135601 455.57669229499544,246.7526187514802 423.36696355707534,189.8471895552314" stroke="black" /><polygon fill="white" opacity="0.5" points="510.24903644292465,214.5428900135601 423.36696355707534,189.8471895552314 478.03930770500455,157.6374608173113" stroke="black" /><polygon fill="blue" opacity="0.5" points="576.2144,226.2144 576.2144,226.2144 523.7856,226.2144" stroke="black" /><polygon fill="blue" opacity="0.5" points="576.2144,226.2144 523.7856,226.2144 523.7856,226.2144" stroke="black" /><polygon fill="red" opacity="0.5" points="576.2144,173.7856 576.2144,173.7856 523.7856,173.7856" stroke="black" /><polygon fill="red" opacity="0.5" points="576.2144,173.7856 523.7856,173.7856 523.7856,173.7856" stroke="black" /><polygon fill="green" opacity="0.5" points="576.2144,226.2144 576.2144,226.2144 576.2144,173.7856" stroke="black" /><polygon fill="green" opacity="0.5" points="576.2144,226.2144 576.2144,173.7856 576.2144,173.7856" stroke="black" /><polygon fill="purple" opacity="0.5" points="523.7856,226.2144 523.7856,226.2144 523.7856,173.7856" stroke="black" /><polygon fill="purple" opacity="0.5" points="523.7856,226.2144 523.7856,173.7856 523.7856,173.7856" stroke="black" /><polygon fill="yellow" opacity="0.5" points="576.2144,226.2144 523.7856,226.2144 523.7856,173.7856" stroke="black" /><polygon fill="yellow" opacity="0.5" points="576.2144,226.2144 523.7856,173.7856 576.2144,173.7856" stroke="black" /><polygon fill="white" opacity="0.5" points="576.2144,226.2144 523.7856,226.2144 523.7856,173.7856" stroke="black" /><polygon fill="white" opacity="0.5" points="576.2144,226.2144 523.7856,173.7856 576.2144,173.7856" stroke="black" /><polygon fill="blue" opacity="0.5" points="626.9451569312029,227.11202507692076 637.4309169312029,229.92167600094734 602.4406166765282,209.30744960867847" stroke="black" /><polygon fill="blue" opacity="0.5" points="626.9451569312029,227.11202507692076 602.4406166765282,209.30744960867847 591.9548566765283,206.4977986846519" stroke="black" /><polygon fill="red" opacity="0.5" points="647.5593833234718,190.69255039132153 658.0451433234717,193.5022013153481 623.0548430687971,172.88797492307924" stroke="black" /><polygon fill="red" opacity="0.5" points="647.5593833234718,190.69255039132153 623.0548430687971,172.88797492307924 612.5690830687971,170.07832399905266" stroke="black" /><polygon fill="green" opacity="0.5" points="626.9451569312029,227.11202507692076 637.4309169312029,229.92167600094734 658.0451433234717,193.5022013153481" stroke="black" /><polygon fill="green" opacity="0.5" points="626.9451569312029,227.11202507692076 658.0451433234717,193.5022013153481 647.5593833234718,190.69255039132153" stroke="black" /><polygon fill="purple" opacity="0.5" points="591.9548566765283,206.4977986846519 602.4406166765282,209.30744960867847 623.0548430687971,172.88797492307924" stroke="black" /><polygon fill="purple" opacity="0.5" points="591.9548566765283,206.4977986846519 623.0548430687971,172.88797492307924 612.5690830687971,170.07832399905266" stroke="black" /><polygon fill="yellow" opacity="0.5" points="626.9451569312029,227.11202507692076 591.9548566765283,206.4977986846519 612.5690830687971,170.07832399905266" stroke="black" /><polygon fill="yellow" opacity="0.5" points="626.9451569312029,227.11202507692076 612.5690830687971,170.07832399905266 647.5593833234718,190.69255039132153" stroke="black" /><polygon fill="white" opacity="0.5" points="637.4309169312029,229.92167600094734 602.4406166765282,209.30744960867847 623.0548430687971,172.88797492307924" stroke="black" /><polygon fill="white" opacity="0.5" points="637.4309169312029,229.92167600094734 623.0548430687971,172.88797492307924 658.0451433234717,193.5022013153481" stroke="black" /><polygon fill="blue" opacity="0.5" points="685.8818661848053,218.3124378151947 700.411361445584,226.7010458151947 687.0057265544159,199.58863855441595" stroke="black" /><polygon fill="blue" opacity="0.5" points="685.8818661848053,218.3124378151947 687.0057265544159,199.58863855441595 672.4762312936372,191.20003055441595" stroke="black" /><polygon fill="red" opacity="0.5" points="712.9942734455841,200.41136144558405 727.5237687063628,208.79996944558405 714.1181338151947,181.6875621848053" stroke="black" /><polygon fill="red" opacity="0.5" points="712.9942734455841,200.41136144558405 714.1181338151947,181.6875621848053 699.588638554416,173.2989541848053" stroke="black" /><polygon fill="green" opacity="0.5" points="685.8818661848053,218.3124378151947 700.411361445584,226.7010458151947 727.5237687063628,208.79996944558405" stroke="black" /><polygon fill="green" opacity="0.5" points="685.8818661848053,218.3124378151947 727.5237687063628,208.79996944558405 712.9942734455841,200.41136144558405" stroke="black" /><polygon fill="purple" opacity="0.5" points="672.4762312936372,191.20003055441595 687.0057265544159,199.58863855441595 714.1181338151947,181.6875621848053" stroke="black" /><polygon fill="purple" opacity="0.5" points="672.4762312936372,191.20003055441595 714.1181338151947,181.6875621848053 699.588638554416,173.2989541848053" stroke="black" /><polygon fill="yellow" opacity="0.5" points="685.8818661848053,218.3124378151947 672.4762312936372,191.20003055441595 699.588638554416,173.2989541848053" stroke="black" /><polygon fill="yellow" opacity="0.5" points="685.8818661848053,218.3124378151947 699.588638554416,173.2989541848053 712.9942734455841,200.41136144558405" stroke="black" /><polygon fill="white" opacity="0.5" points="700.411361445584,226.7010458151947 687.0057265544159,199.58863855441595 714.1181338151947,181.6875621848053" stroke="black" /><polygon fill="white" opacity="0.5" points="700.411361445584,226.7010458151947 714.1181338151947,181.6875621848053 727.5237687063628,208.79996944558405" stroke="black" /><polygon fill="blue" opacity="0.5" points="754.8673408,206.71088640000002 768.2891136,220.1326592 772.2202598375749,197.22025983757484" stroke="black" /><polygon fill="blue" opacity="0.5" points="754.8673408,206.71088640000002 772.2202598375749,197.22025983757484 758.7984870375749,183.79848703757483" stroke="black" /><polygon fill="red" opacity="0.5" points="777.7797401624251,202.77974016242516 791.2015129624251,216.20151296242517 795.1326592,193.28911359999998" stroke="black" /><polygon fill="red" opacity="0.5" points="777.7797401624251,202.77974016242516 795.1326592,193.28911359999998 781.7108864,179.8673408" stroke="black" /><polygon fill="green" opacity="0.5" points="754.8673408,206.71088640000002 768.2891136,220.1326592 791.2015129624251,216.20151296242517" stroke="black" /><polygon fill="green" opacity="0.5" points="754.8673408,206.71088640000002 791.2015129624251,216.20151296242517 777.7797401624251,202.77974016242516" stroke="black" /><polygon fill="purple" opacity="0.5" points="758.7984870375749,183.79848703757483 772.2202598375749,197.22025983757484 795.1326592,193.28911359999998" stroke="black" /><polygon fill="purple" opacity="0.5" points="758.7984870375749,183.79848703757483 795.1326592,193.28911359999998 781.7108864,179.8673408" stroke="black" /><polygon fill="yellow" opacity="0.5" points="754.8673408,206.71088640000002 758.7984870375749,183.79848703757483 781.7108864,179.8673408" stroke="black" /><polygon fill="yellow" opacity="0.5" points="754.8673408,206.71088640000002 781.7108864,179.8673408 777.7797401624251,202.77974016242516" stroke="black" /><polygon fill="white" opacity="0.5" points="768.2891136,220.1326592 772.2202598375749,197.22025983757484 795.1326592,193.28911359999998" stroke="black" /><polygon fill="white" opacity="0.5" points="768.2891136,220.1326592 795.1326592,193.28911359999998 791.2015129624251,216.20151296242517" stroke="black" /></svg>