<?xml version="1.0" encoding="utf-8" ?>
<svg baseProfile="full" height="600" version="1.1" width="800" xmlns="http://www.w3.org/2000/svg" xmlns:ev="http://www.w3.org/2001/xml-events" xmlns:xlink="http://www.w3.org/1999/xlink"><defs /><polygon fill="#094242" opacity="0.7" points="10.0,10.0 10.0,190.0 190.0,190.0 190.0,10.0" stroke="#000000" /><polygon fill="#74305E" opacity="0.7" points="19.0,19.0 19.0,181.0 181.0,181.0 181.0,19.0" stroke="#000000" /><polygon fill="#9D71BE" opacity="0.7" points="27.1,27.1 27.1,172.9 172.9,172.9 172.9,27.1" stroke="#000000" /><polygon fill="#42A5D3" opacity="0.7" points="34.39,34.39 34.39,165.61 165.61,165.61 165.61,34.39" stroke="#000000" /><polygon fill="#D693BC" opacity="0.7" points="40.951,40.951 40.951,159.049 159.049,159.049 159.049,40.951" stroke="#000000" /><polygon fill="#7F06F3" opacity="0.7" points="46.8559,46.8559 46.8559,153.1441 153.1441,153.1441 153.1441,46.8559" stroke="#000000" /><polygon fill="#FB6825" opacity="0.7" points="52.17031,52.17031 52.17031,147.82969 147.82969,147.82969 147.82969,52.17031" stroke="#000000" /><polygon fill="#585AAB" opacity="0.7" points="56.953279,56.953279 56.953279,143.046721 143.046721,143.046721 143.046721,56.953279" stroke="#000000" /><polygon fill="#951ACD" opacity="0.7" points="61.2579511,61.2579511 61.2579511,138.7420489 138.7420489,138.7420489 138.7420489,61.2579511" stroke="#000000" /><polygon fill="#9EA692" opacity="0.7" points="65.13215599,65.13215599 65.13215599,134.86784401 134.86784401,134.86784401 134.86784401,65.13215599" stroke="#000000" /><polygon fill="#3EE59F" opacity="0.7" points="68.618940391,68.618940391 68.618940391,131.381059609 131.381059609,131.381059609 131.381059609,68.618940391" stroke="#000000" /><polygon fill="#B94BA6" opacity="0.7" points="71.75704635189999,71.75704635189999 71.75704635189999,128.2429536481 128.2429536481,128.2429536481 128.2429536481,71.75704635189999" stroke="#000000" /><polygon fill="#967874" opacity="0.7" points="74.58134171670999,74.58134171670999 74.58134171670999,125.41865828329001 125.41865828329001,125.41865828329001 125.41865828329001,74.58134171670999" stroke="#000000" /><polygon fill="#5B7B59" opacity="0.7" points="77.123207545039,77.123207545039 77.123207545039,122.87679245496102 122.87679245496102,122.87679245496102 122.87679245496102,77.123207545039" stroke="#000000" /><polygon fill="#882B41" opacity="0.7" points="79.4108867905351,79.4108867905351 79.4108867905351,120.58911320946493 120.58911320946493,120.58911320946493 120.58911320946493,79.4108867905351" stroke="#000000" /><polygon fill="#9975D2" opacity="0.7" points="81.4697981114816,81.4697981114816 81.4697981114816,118.53020188851843 118.53020188851843,118.53020188851843 118.53020188851843,81.4697981114816" stroke="#000000" /><polygon fill="#780DC6" opacity="0.7" points="83.32281830033344,83.32281830033344 83.32281830033344,116.67718169966659 116.67718169966659,116.67718169966659 116.67718169966659,83.32281830033344" stroke="#000000" /><polygon fill="#5E41AF" opacity="0.7" points="84.9905364703001,84.9905364703001 84.9905364703001,115.00946352969993 115.00946352969993,115.00946352969993 115.00946352969993,84.9905364703001" stroke="#000000" /><polygon fill="#71542B" opacity="0.7" points="86.49148282327009,86.49148282327009 86.49148282327009,113.50851717672994 113.50851717672994,113.50851717672994 113.50851717672994,86.49148282327009" stroke="#000000" /><polygon fill="#346C68" opacity="0.7" points="87.84233454094309,87.84233454094309 87.84233454094309,112.15766545905694 112.15766545905694,112.15766545905694 112.15766545905694,87.84233454094309" stroke="#000000" /><polygon fill="#4F98BA" opacity="0.7" points="89.05810108684878,89.05810108684878 89.05810108684878,110.94189891315125 110.94189891315125,110.94189891315125 110.94189891315125,89.05810108684878" stroke="#000000" /><polygon fill="#C3736E" opacity="0.7" points="90.1522909781639,90.1522909781639 90.1522909781639,109.84770902183612 109.84770902183612,109.84770902183612 109.84770902183612,90.1522909781639" stroke="#000000" /><polygon fill="#AA0A75" opacity="0.7" points="91.13706188034752,91.13706188034752 91.13706188034752,108.86293811965251 108.86293811965251,108.86293811965251 108.86293811965251,91.13706188034752" stroke="#000000" /><polygon fill="#674C58" opacity="0.7" points="92.02335569231276,92.02335569231276 92.02335569231276,107.97664430768727 107.97664430768727,107.97664430768727 107.97664430768727,92.02335569231276" stroke="#000000" /><polygon fill="#53E604" opacity="0.7" points="92.82102012308148,92.82102012308148 92.82102012308148,107.17897987691855 107.17897987691855,107.17897987691855 107.17897987691855,92.82102012308148" stroke="#000000" /><polygon fill="#3C9A56" opacity="0.7" points="93.53891811077334,93.53891811077334 93.53891811077334,106.46108188922669 106.46108188922669,106.46108188922669 106.46108188922669,93.53891811077334" stroke="#000000" /><polygon fill="#B32930" opacity="0.7" points="94.185026299696,94.185026299696 94.185026299696,105.81497370030402 105.81497370030402,105.81497370030402 105.81497370030402,94.185026299696" stroke="#000000" /><polygon fill="#113868" opacity="0.7" points="94.76652366972641,94.76652366972641 94.76652366972641,105.23347633027362 105.23347633027362,105.23347633027362 105.23347633027362,94.76652366972641" stroke="#000000" /><polygon fill="#14482A" opacity="0.7" points="95.28987130275377,95.28987130275377 95.28987130275377,104.71012869724626 104.71012869724626,104.71012869724626 104.71012869724626,95.28987130275377" stroke="#000000" /><polygon fill="#E2C4A9" opacity="0.7" points="95.7608841724784,95.7608841724784 95.7608841724784,104.23911582752164 104.23911582752164,104.23911582752164 104.23911582752164,95.7608841724784" stroke="#000000" /><polygon fill="#78FD8C" opacity="0.7" points="96.18479575523057,96.18479575523057 96.18479575523057,103.81520424476948 103.81520424476948,103.81520424476948 103.81520424476948,96.18479575523057" stroke="#000000" /><polygon fill="#6F87C6" opacity="0.7" points="96.56631617970751,96.56631617970751 96.56631617970751,103.43368382029253 103.43368382029253,103.43368382029253 103.43368382029253,96.56631617970751" stroke="#000000" /><polygon fill="#39E4EA" opacity="0.7" points="96.90968456173677,96.90968456173677 96.90968456173677,103.09031543826327 103.09031543826327,103.09031543826327 103.09031543826327,96.90968456173677" stroke="#000000" /><polygon fill="#CAD950" opacity="0.7" points="97.21871610556309,97.21871610556309 97.21871610556309,102.78128389443695 102.78128389443695,102.78128389443695 102.78128389443695,97.21871610556309" stroke="#000000" /><polygon fill="#F58DAE" opacity="0.7" points="97.49684449500678,97.49684449500678 97.49684449500678,102.50315550499326 102.50315550499326,102.50315550499326 102.50315550499326,97.49684449500678" stroke="#000000" /><polygon fill="#F3D17D" opacity="0.7" points="97.7471600455061,97.7471600455061 97.7471600455061,102.25283995449394 102.25283995449394,102.25283995449394 102.25283995449394,97.7471600455061" stroke="#000000" /><polygon fill="#215B08" opacity="0.7" points="97.9724440409555,97.9724440409555 97.9724440409555,102.02755595904455 102.02755595904455,102.02755595904455 102.02755595904455,97.9724440409555" stroke="#000000" /><polygon fill="#8818B2" opacity="0.7" points="98.17519963685994,98.17519963685994 98.17519963685994,101.8248003631401 101.8248003631401,101.8248003631401 101.8248003631401,98.17519963685994" stroke="#000000" /><polygon fill="#46149A" opacity="0.7" points="98.35767967317395,98.35767967317395 98.35767967317395,101.6423203268261 101.6423203268261,101.6423203268261 101.6423203268261,98.35767967317395" stroke="#000000" /><polygon fill="#C35506" opacity="0.7" points="98.52191170585655,98.52191170585655 98.52191170585655,101.47808829414349 101.47808829414349,101.47808829414349 101.47808829414349,98.52191170585655" stroke="#000000" /><polygon fill="#A040F9" opacity="0.7" points="98.6697205352709,98.6697205352709 98.6697205352709,101.33027946472914 101.33027946472914,101.33027946472914 101.33027946472914,98.6697205352709" stroke="#000000" /><polygon fill="#31875A" opacity="0.7" points="98.8027484817438,98.8027484817438 98.8027484817438,101.19725151825624 101.19725151825624,101.19725151825624 101.19725151825624,98.8027484817438" stroke="#000000" /><polygon fill="#F68911" opacity="0.7" points="98.92247363356942,98.92247363356942 98.92247363356942,101.07752636643062 101.07752636643062,101.07752636643062 101.07752636643062,98.92247363356942" stroke="#000000" /><polygon fill="#471BDC" opacity="0.7" points="99.03022627021248,99.03022627021248 99.03022627021248,100.96977372978756 100.96977372978756,100.96977372978756 100.96977372978756,99.03022627021248" stroke="#000000" /><polygon fill="#AE3831" opacity="0.7" points="99.12720364319124,99.12720364319124 99.12720364319124,100.8727963568088 100.8727963568088,100.8727963568088 100.8727963568088,99.12720364319124" stroke="#000000" /><polygon fill="#9B2607" opacity="0.7" points="99.21448327887211,99.21448327887211 99.21448327887211,100.78551672112793 100.78551672112793,100.78551672112793 100.78551672112793,99.21448327887211" stroke="#000000" /><polygon fill="#ED292A" opacity="0.7" points="99.2930349509849,99.2930349509849 99.2930349509849,100.70696504901514 100.70696504901514,100.70696504901514 100.70696504901514,99.2930349509849" stroke="#000000" /><polygon fill="#163798" opacity="0.7" points="99.36373145588641,99.36373145588641 99.36373145588641,100.63626854411363 100.63626854411363,100.63626854411363 100.63626854411363,99.36373145588641" stroke="#000000" /><polygon fill="#40C15F" opacity="0.7" points="99.42735831029778,99.42735831029778 99.42735831029778,100.57264168970227 100.57264168970227,100.57264168970227 100.57264168970227,99.42735831029778" stroke="#000000" /><polygon fill="#F78D45" opacity="0.7" points="99.484622479268,99.484622479268 99.484622479268,100.51537752073205 100.51537752073205,100.51537752073205 100.51537752073205,99.484622479268" stroke="#000000" /><polygon fill="#39ED0A" opacity="0.7" points="99.5361602313412,99.5361602313412 99.5361602313412,100.46383976865884 100.46383976865884,100.46383976865884 100.46383976865884,99.5361602313412" stroke="#000000" /><polygon fill="#B29EC3" opacity="0.7" points="99.58254420820708,99.58254420820708 99.58254420820708,100.41745579179296 100.41745579179296,100.41745579179296 100.41745579179296,99.58254420820708" stroke="#000000" /><polygon fill="#46ADE3" opacity="0.7" points="99.62428978738637,99.62428978738637 99.62428978738637,100.37571021261367 100.37571021261367,100.37571021261367 100.37571021261367,99.62428978738637" stroke="#000000" /><polygon fill="#5A2D2A" opacity="0.7" points="99.66186080864775,99.66186080864775 99.66186080864775,100.3381391913523 100.3381391913523,100.3381391913523 100.3381391913523,99.66186080864775" stroke="#000000" /><polygon fill="#C7FA10" opacity="0.7" points="99.69567472778297,99.69567472778297 99.69567472778297,100.30432527221707 100.30432527221707,100.30432527221707 100.30432527221707,99.69567472778297" stroke="#000000" /><polygon fill="#F24C29" opacity="0.7" points="99.72610725500468,99.72610725500468 99.72610725500468,100.27389274499536 100.27389274499536,100.27389274499536 100.27389274499536,99.72610725500468" stroke="#000000" /><polygon fill="#952852" opacity="0.7" points="99.75349652950422,99.75349652950422 99.75349652950422,100.24650347049582 100.24650347049582,100.24650347049582 100.24650347049582,99.75349652950422" stroke="#000000" /><polygon fill="#9863B6" opacity="0.7" points="99.7781468765538,99.7781468765538 99.7781468765538,100.22185312344624 100.22185312344624,100.22185312344624 100.22185312344624,99.7781468765538" stroke="#000000" /><polygon fill="#DB3A99" opacity="0.7" points="99.80033218889842,99.80033218889842 99.80033218889842,100.19966781110162 100.19966781110162,100.19966781110162 100.19966781110162,99.80033218889842" stroke="#000000" /><polygon fill="#FC8345" opacity="0.7" points="99.82029897000858,99.82029897000858 99.82029897000858,100.17970102999146 100.17970102999146,100.17970102999146 100.17970102999146,99.82029897000858" stroke="#000000" /><polygon fill="#DA730B" opacity="0.7" points="99.83826907300772,99.83826907300772 99.83826907300772,100.16173092699232 100.16173092699232,100.16173092699232 100.16173092699232,99.83826907300772" stroke="#000000" /><polygon fill="#116CD0" opacity="0.7" points="99.85444216570696,99.85444216570696 99.85444216570696,100.14555783429309 100.14555783429309,100.14555783429309 100.14555783429309,99.85444216570696" stroke="#000000" /><polygon fill="#CD3A81" opacity="0.7" points="99.86899794913626,99.86899794913626 99.86899794913626,100.13100205086378 100.13100205086378,100.13100205086378 100.13100205086378,99.86899794913626" stroke="#000000" /><polygon fill="#7FBC3D" opacity="0.7" points="99.88209815422263,99.88209815422263 99.88209815422263,100.11790184577741 100.11790184577741,100.11790184577741 100.11790184577741,99.88209815422263" stroke="#000000" /><polygon fill="#4A9628" opacity="0.7" points="99.89388833880037,99.89388833880037 99.89388833880037,100.10611166119968 100.10611166119968,100.10611166119968 100.10611166119968,99.89388833880037" stroke="#000000" /><polygon fill="#84F02D" opacity="0.7" points="99.90449950492034,99.90449950492034 99.90449950492034,100.0955004950797 100.0955004950797,100.0955004950797 100.0955004950797,99.90449950492034" stroke="#000000" /><polygon fill="#0FC59E" opacity="0.7" points="99.9140495544283,99.9140495544283 99.9140495544283,100.08595044557174 100.08595044557174,100.08595044557174 100.08595044557174,99.9140495544283" stroke="#000000" /><polygon fill="#FBB647" opacity="0.7" points="99.92264459898547,99.92264459898547 99.92264459898547,100.07735540101457 100.07735540101457,100.07735540101457 100.07735540101457,99.92264459898547" stroke="#000000" /><polygon fill="#44BDE9" opacity="0.7" points="99.93038013908692,99.93038013908692 99.93038013908692,100.06961986091312 100.06961986091312,100.06961986091312 100.06961986091312,99.93038013908692" stroke="#000000" /><polygon fill="#A92C6B" opacity="0.7" points="99.93734212517823,99.93734212517823 99.93734212517823,100.06265787482181 100.06265787482181,100.06265787482181 100.06265787482181,99.93734212517823" stroke="#000000" /><polygon fill="#995A50" opacity="0.7" points="99.94360791266041,99.94360791266041 99.94360791266041,100.05639208733963 100.05639208733963,100.05639208733963 100.05639208733963,99.94360791266041" stroke="#000000" /><polygon fill="#655037" opacity="0.7" points="99.94924712139438,99.94924712139438 99.94924712139438,100.05075287860566 100.05075287860566,100.05075287860566 100.05075287860566,99.94924712139438" stroke="#000000" /><polygon fill="#9E4011" opacity="0.7" points="99.95432240925494,99.95432240925494 99.95432240925494,100.0456775907451 100.0456775907451,100.0456775907451 100.0456775907451,99.95432240925494" stroke="#000000" /><polygon fill="#9BE46E" opacity="0.7" points="99.95889016832945,99.95889016832945 99.95889016832945,100.0411098316706 100.0411098316706,100.0411098316706 100.0411098316706,99.95889016832945" stroke="#000000" /><polygon fill="#095733" opacity="0.7" points="99.9630011514965,99.9630011514965 99.9630011514965,100.03699884850354 100.03699884850354,100.03699884850354 100.03699884850354,99.9630011514965" stroke="#000000" /><polygon fill="#BB148E" opacity="0.7" points="99.96670103634685,99.96670103634685 99.96670103634685,100.0332989636532 100.0332989636532,100.0332989636532 100.0332989636532,99.96670103634685" stroke="#000000" /><polygon fill="#877686" opacity="0.7" points="99.97003093271216,99.97003093271216 99.97003093271216,100.02996906728788 100.02996906728788,100.02996906728788 100.02996906728788,99.97003093271216" stroke="#000000" /><polygon fill="#D766AB" opacity="0.7" points="99.97302783944095,99.97302783944095 99.97302783944095,100.0269721605591 100.0269721605591,100.0269721605591 100.0269721605591,99.97302783944095" stroke="#000000" /><polygon fill="#313F51" opacity="0.7" points="99.97572505549685,99.97572505549685 99.97572505549685,100.02427494450319 100.02427494450319,100.02427494450319 100.02427494450319,99.97572505549685" stroke="#000000" /><polygon fill="#F5470B" opacity="0.7" points="99.97815254994717,99.97815254994717 99.97815254994717,100.02184745005287 100.02184745005287,100.02184745005287 100.02184745005287,99.97815254994717" stroke="#000000" /><polygon fill="#9133AF" opacity="0.7" points="99.98033729495245,99.98033729495245 99.98033729495245,100.0196627050476 100.0196627050476,100.0196627050476 100.0196627050476,99.98033729495245" stroke="#000000" /><polygon fill="#68CD28" opacity="0.7" points="99.9823035654572,99.9823035654572 99.9823035654572,100.01769643454284 100.01769643454284,100.01769643454284 100.01769643454284,99.9823035654572" stroke="#000000" /><polygon fill="#0FD33A" opacity="0.7" points="99.98407320891148,99.98407320891148 99.98407320891148,100.01592679108856 100.01592679108856,100.01592679108856 100.01592679108856,99.98407320891148" stroke="#000000" /><polygon fill="#C517D2" opacity="0.7" points="99.98566588802034,99.98566588802034 99.98566588802034,100.01433411197971 100.01433411197971,100.01433411197971 100.01433411197971,99.98566588802034" stroke="#000000" /><polygon fill="#D5F52A" opacity="0.7" points="99.9870992992183,99.9870992992183 99.9870992992183,100.01290070078174 100.01290070078174,100.01290070078174 100.01290070078174,99.9870992992183" stroke="#000000" /><polygon fill="#7221A8" opacity="0.7" points="99.98838936929647,99.98838936929647 99.98838936929647,100.01161063070357 100.01161063070357,100.01161063070357 100.01161063070357,99.98838936929647" stroke="#000000" /><polygon fill="#F10998" opacity="0.7" points="99.98955043236683,99.98955043236683 99.98955043236683,100.01044956763322 100.01044956763322,100.01044956763322 100.01044956763322,99.98955043236683" stroke="#000000" /><polygon fill="#9A2BF4" opacity="0.7" points="99.99059538913015,99.99059538913015 99.99059538913015,100.0094046108699 100.0094046108699,100.0094046108699 100.0094046108699,99.99059538913015" stroke="#000000" /><polygon fill="#EDE32A" opacity="0.7" points="99.99153585021713,99.99153585021713 99.99153585021713,100.00846414978291 100.00846414978291,100.00846414978291 100.00846414978291,99.99153585021713" stroke="#000000" /><polygon fill="#9B6011" opacity="0.7" points="99.99238226519542,99.99238226519542 99.99238226519542,100.00761773480463 100.00761773480463,100.00761773480463 100.00761773480463,99.99238226519542" stroke="#000000" /><polygon fill="#71C996" opacity="0.7" points="99.99314403867588,99.99314403867588 99.99314403867588,100.00685596132416 100.00685596132416,100.00685596132416 100.00685596132416,99.99314403867588" stroke="#000000" /><polygon fill="#1D3D41" opacity="0.7" points="99.99382963480829,99.99382963480829 99.99382963480829,100.00617036519175 100.00617036519175,100.00617036519175 100.00617036519175,99.99382963480829" stroke="#000000" /><polygon fill="#FC31D9" opacity="0.7" points="99.99444667132747,99.99444667132747 99.99444667132747,100.00555332867258 100.00555332867258,100.00555332867258 100.00555332867258,99.99444667132747" stroke="#000000" /><polygon fill="#A388A8" opacity="0.7" points="99.99500200419472,99.99500200419472 99.99500200419472,100.00499799580533 100.00499799580533,100.00499799580533 100.00499799580533,99.99500200419472" stroke="#000000" /><polygon fill="#5DF2D3" opacity="0.7" points="99.99550180377524,99.99550180377524 99.99550180377524,100.0044981962248 100.0044981962248,100.0044981962248 100.0044981962248,99.99550180377524" stroke="#000000" /><polygon fill="#DF857E" opacity="0.7" points="99.99595162339772,99.99595162339772 99.99595162339772,100.00404837660233 100.00404837660233,100.00404837660233 100.00404837660233,99.99595162339772" stroke="#000000" /><polygon fill="#0BB77B" opacity="0.7" points="99.99635646105794,99.99635646105794 99.99635646105794,100.0036435389421 100.0036435389421,100.0036435389421 100.0036435389421,99.99635646105794" stroke="#000000" /><polygon fill="#DDAC4F" opacity="0.7" points="99.99672081495216,99.99672081495216 99.99672081495216,100.00327918504789 100.00327918504789,100.00327918504789 100.00327918504789,99.99672081495216" stroke="#000000" /><polygon fill="#BF9456" opacity="0.7" points="99.99704873345694,99.99704873345694 99.99704873345694,100.0029512665431 100.0029512665431,100.0029512665431 100.0029512665431,99.99704873345694" stroke="#000000" /><polygon fill="#77F61D" opacity="0.7" points="99.99734386011124,99.99734386011124 99.99734386011124,100.0026561398888 100.0026561398888,100.0026561398888 100.0026561398888,99.99734386011124" stroke="#000000" /><polygon fill="#2A5FDB" opacity="0.7" points="250.0,250.0 250.0,450.0 450.0,450.0 450.0,250.0" stroke="#000000" /><polygon fill="#9BC7AA" opacity="0.7" points="300.0,300.0 300.0,400.0 400.0,400.0 400.0,300.0" stroke="#000000" /><polygon fill="#90B9EA" opacity="0.7" points="325.0,325.0 325.0,375.0 375.0,375.0 375.0,325.0" stroke="#000000" /><polygon fill="#A4F33D" opacity="0.7" points="337.5,337.5 337.5,362.5 362.5,362.5 362.5,337.5" stroke="#000000" /></svg>