<?xml version="1.0" encoding="utf-8" ?>
<svg baseProfile="full" height="600" version="1.1" width="800" xmlns="http://www.w3.org/2000/svg" xmlns:ev="http://www.w3.org/2001/xml-events" xmlns:xlink="http://www.w3.org/1999/xlink"><defs /><polygon fill="blue" opacity="0.5" points="12.092757432198411,87.8028946406138 15.500174803291586,286.0918669153759 213.78914707805365,286.0918669153759" stroke="black" /><polygon fill="blue" opacity="0.5" points="12.092757432198411,87.8028946406138 213.78914707805365,286.0918669153759 210.38172970696047,87.8028946406138" stroke="black" /><polygon fill="red" opacity="0.5" points="-13.78914707805366,113.90813308462413 -10.381729706960485,312.1971053593862 187.90724256780157,312.1971053593862" stroke="black" /><polygon fill="red" opacity="0.5" points="-13.78914707805366,113.90813308462413 187.90724256780157,312.1971053593862 184.4998251967084,113.90813308462413" stroke="black" /><polygon fill="green" opacity="0.5" points="12.092757432198411,87.8028946406138 15.500174803291586,286.0918669153759 -10.381729706960485,312.1971053593862" stroke="black" /><polygon fill="green" opacity="0.5" points="12.092757432198411,87.8028946406138 -10.381729706960485,312.1971053593862 -13.78914707805366,113.90813308462413" stroke="black" /><polygon fill="purple" opacity="0.5" points="210.38172970696047,87.8028946406138 213.78914707805365,286.0918669153759 187.90724256780157,312.1971053593862" stroke="black" /><polygon fill="purple" opacity="0.5" points="210.38172970696047,87.8028946406138 187.90724256780157,312.1971053593862 184.4998251967084,113.90813308462413" stroke="black" /><polygon fill="yellow" opacity="0.5" points="12.092757432198411,87.8028946406138 210.38172970696047,87.8028946406138 184.4998251967084,113.90813308462413" stroke="black" /><polygon fill="yellow" opacity="0.5" points="12.092757432198411,87.8028946406138 184.4998251967084,113.90813308462413 -13.78914707805366,113.90813308462413" stroke="black" /><polygon fill="white" opacity="0.5" points="15.500174803291586,286.0918669153759 213.78914707805365,286.0918669153759 187.90724256780157,312.1971053593862" stroke="black" /><polygon fill="white" opacity="0.5" points="15.500174803291586,286.0918669153759 187.90724256780157,312.1971053593862 -10.381729706960485,312.1971053593862" stroke="black" /><polygon fill="blue" opacity="0.5" points="144.47912439002786,78.2976089194716 122.85249539939588,221.62501236707348 268.3866336217089,266.6880331310278" stroke="black" /><polygon fill="blue" opacity="0.5" points="144.47912439002786,78.2976089194716 268.3866336217089,266.6880331310278 290.0132626123409,123.3606296834259" stroke="black" /><polygon fill="red" opacity="0.5" points="81.6133663782911,133.3119668689722 59.986737387659105,276.6393703165741 205.52087560997214,321.7023910805284" stroke="black" /><polygon fill="red" opacity="0.5" points="81.6133663782911,133.3119668689722 205.52087560997214,321.7023910805284 227.14750460060412,178.37498763292652" stroke="black" /><polygon fill="green" opacity="0.5" points="144.47912439002786,78.2976089194716 122.85249539939588,221.62501236707348 59.986737387659105,276.6393703165741" stroke="black" /><polygon fill="green" opacity="0.5" points="144.47912439002786,78.2976089194716 59.986737387659105,276.6393703165741 81.6133663782911,133.3119668689722" stroke="black" /><polygon fill="purple" opacity="0.5" points="290.0132626123409,123.3606296834259 268.3866336217089,266.6880331310278 205.52087560997214,321.7023910805284" stroke="black" /><polygon fill="purple" opacity="0.5" points="290.0132626123409,123.3606296834259 205.52087560997214,321.7023910805284 227.14750460060412,178.37498763292652" stroke="black" /><polygon fill="yellow" opacity="0.5" points="144.47912439002786,78.2976089194716 290.0132626123409,123.3606296834259 227.14750460060412,178.37498763292652" stroke="black" /><polygon fill="yellow" opacity="0.5" points="144.47912439002786,78.2976089194716 227.14750460060412,178.37498763292652 81.6133663782911,133.3119668689722" stroke="black" /><polygon fill="white" opacity="0.5" points="122.85249539939588,221.62501236707348 268.3866336217089,266.6880331310278 205.52087560997214,321.7023910805284" stroke="black" /><polygon fill="white" opacity="0.5" points="122.85249539939588,221.62501236707348 205.52087560997214,321.7023910805284 59.986737387659105,276.6393703165741" stroke="black" /><polygon fill="blue" opacity="0.5" points="243.59004449558216,90.29327310055396 225.1950760358984,178.13406155065132 329.002404617169,241.43918978241533" stroke="black" /><polygon fill="blue" opacity="0.5" points="243.59004449558216,90.29327310055396 329.002404617169,241.43918978241533 347.3973730768528,153.598401332318" stroke="black" /><polygon fill="red" opacity="0.5" points="170.99759538283098,158.56081021758467 152.60262692314723,246.401598667682 256.40995550441784,309.70672689944604" stroke="black" /><polygon fill="red" opacity="0.5" points="170.99759538283098,158.56081021758467 256.40995550441784,309.70672689944604 274.8049239641016,221.86593844934868" stroke="black" /><polygon fill="green" opacity="0.5" points="243.59004449558216,90.29327310055396 225.1950760358984,178.13406155065132 152.60262692314723,246.401598667682" stroke="black" /><polygon fill="green" opacity="0.5" points="243.59004449558216,90.29327310055396 152.60262692314723,246.401598667682 170.99759538283098,158.56081021758467" stroke="black" /><polygon fill="purple" opacity="0.5" points="347.3973730768528,153.598401332318 329.002404617169,241.43918978241533 256.40995550441784,309.70672689944604" stroke="black" /><polygon fill="purple" opacity="0.5" points="347.3973730768528,153.598401332318 256.40995550441784,309.70672689944604 274.8049239641016,221.86593844934868" stroke="black" /><polygon fill="yellow" opacity="0.5" points="243.59004449558216,90.29327310055396 347.3973730768528,153.598401332318 274.8049239641016,221.86593844934868" stroke="black" /><polygon fill="yellow" opacity="0.5" points="243.59004449558216,90.29327310055396 274.8049239641016,221.86593844934868 170.99759538283098,158.56081021758467" stroke="black" /><polygon fill="white" opacity="0.5" points="225.1950760358984,178.13406155065132 329.002404617169,241.43918978241533 256.40995550441784,309.70672689944604" stroke="black" /><polygon fill="white" opacity="0.5" points="225.1950760358984,178.13406155065132 256.40995550441784,309.70672689944604 152.60262692314723,246.401598667682" stroke="black" /><polygon fill="blue" opacity="0.5" points="320.18788600542473,113.1458004034319 313.4349220287237,155.40982581588923 393.40809598347505,215.6229085758931" stroke="black" /><polygon fill="blue" opacity="0.5" points="320.18788600542473,113.1458004034319 393.40809598347505,215.6229085758931 400.1610599601761,173.35888316343576" stroke="black" /><polygon fill="red" opacity="0.5" points="256.59190401652495,184.3770914241069 249.8389400398239,226.64111683656424 329.81211399457527,286.8541995965681" stroke="black" /><polygon fill="red" opacity="0.5" points="256.59190401652495,184.3770914241069 329.81211399457527,286.8541995965681 336.5650779712763,244.59017418411077" stroke="black" /><polygon fill="green" opacity="0.5" points="320.18788600542473,113.1458004034319 313.4349220287237,155.40982581588923 249.8389400398239,226.64111683656424" stroke="black" /><polygon fill="green" opacity="0.5" points="320.18788600542473,113.1458004034319 249.8389400398239,226.64111683656424 256.59190401652495,184.3770914241069" stroke="black" /><polygon fill="purple" opacity="0.5" points="400.1610599601761,173.35888316343576 393.40809598347505,215.6229085758931 329.81211399457527,286.8541995965681" stroke="black" /><polygon fill="purple" opacity="0.5" points="400.1610599601761,173.35888316343576 329.81211399457527,286.8541995965681 336.5650779712763,244.59017418411077" stroke="black" /><polygon fill="yellow" opacity="0.5" points="320.18788600542473,113.1458004034319 400.1610599601761,173.35888316343576 336.5650779712763,244.59017418411077" stroke="black" /><polygon fill="yellow" opacity="0.5" points="320.18788600542473,113.1458004034319 336.5650779712763,244.59017418411077 256.59190401652495,184.3770914241069" stroke="black" /><polygon fill="white" opacity="0.5" points="313.4349220287237,155.40982581588923 393.40809598347505,215.6229085758931 329.81211399457527,286.8541995965681" stroke="black" /><polygon fill="white" opacity="0.5" points="313.4349220287237,155.40982581588923 329.81211399457527,286.8541995965681 249.8389400398239,226.64111683656424" stroke="black" /><polygon fill="blue" opacity="0.5" points="387.7310519530547,138.011946694157 388.86521436919537,149.74015098904675 457.29332161136296,194.16923496656557" stroke="black" /><polygon fill="blue" opacity="0.5" points="387.7310519530547,138.011946694157 457.29332161136296,194.16923496656557 456.1591591952223,182.44103067167578" stroke="black" /><polygon fill="red" opacity="0.5" points="342.70667838863704,205.83076503343443 343.8408408047777,217.55896932832422 412.2689480469453,261.988053305843" stroke="black" /><polygon fill="red" opacity="0.5" points="342.70667838863704,205.83076503343443 412.2689480469453,261.988053305843 411.13478563080463,250.25984901095325" stroke="black" /><polygon fill="green" opacity="0.5" points="387.7310519530547,138.011946694157 388.86521436919537,149.74015098904675 343.8408408047777,217.55896932832422" stroke="black" /><polygon fill="green" opacity="0.5" points="387.7310519530547,138.011946694157 343.8408408047777,217.55896932832422 342.70667838863704,205.83076503343443" stroke="black" /><polygon fill="purple" opacity="0.5" points="456.1591591952223,182.44103067167578 457.29332161136296,194.16923496656557 412.2689480469453,261.988053305843" stroke="black" /><polygon fill="purple" opacity="0.5" points="456.1591591952223,182.44103067167578 412.2689480469453,261.988053305843 411.13478563080463,250.25984901095325" stroke="black" /><polygon fill="yellow" opacity="0.5" points="387.7310519530547,138.011946694157 456.1591591952223,182.44103067167578 411.13478563080463,250.25984901095325" stroke="black" /><polygon fill="yellow" opacity="0.5" points="387.7310519530547,138.011946694157 411.13478563080463,250.25984901095325 342.70667838863704,205.83076503343443" stroke="black" /><polygon fill="white" opacity="0.5" points="388.86521436919537,149.74015098904675 457.29332161136296,194.16923496656557 412.2689480469453,261.988053305843" stroke="black" /><polygon fill="white" opacity="0.5" points="388.86521436919537,149.74015098904675 412.2689480469453,261.988053305843 343.8408408047777,217.55896932832422" stroke="black" /><polygon fill="blue" opacity="0.5" points="455.4850890511915,159.1883145210082 458.13288530430157,155.62797198154868 518.9040024946942,180.1344930353698" stroke="black" /><polygon fill="blue" opacity="0.5" points="455.4850890511915,159.1883145210082 518.9040024946942,180.1344930353698 516.2562062415841,183.69483557482934" stroke="black" /><polygon fill="red" opacity="0.5" points="431.0959975053059,219.8655069646302 433.7437937584159,216.30516442517066 494.5149109488085,240.8116854789918" stroke="black" /><polygon fill="red" opacity="0.5" points="431.0959975053059,219.8655069646302 494.5149109488085,240.8116854789918 491.86711469569843,244.37202801845132" stroke="black" /><polygon fill="green" opacity="0.5" points="455.4850890511915,159.1883145210082 458.13288530430157,155.62797198154868 433.7437937584159,216.30516442517066" stroke="black" /><polygon fill="green" opacity="0.5" points="455.4850890511915,159.1883145210082 433.7437937584159,216.30516442517066 431.0959975053059,219.8655069646302" stroke="black" /><polygon fill="purple" opacity="0.5" points="516.2562062415841,183.69483557482934 518.9040024946942,180.1344930353698 494.5149109488085,240.8116854789918" stroke="black" /><polygon fill="purple" opacity="0.5" points="516.2562062415841,183.69483557482934 494.5149109488085,240.8116854789918 491.86711469569843,244.37202801845132" stroke="black" /><polygon fill="yellow" opacity="0.5" points="455.4850890511915,159.1883145210082 516.2562062415841,183.69483557482934 491.86711469569843,244.37202801845132" stroke="black" /><polygon fill="yellow" opacity="0.5" points="455.4850890511915,159.1883145210082 491.86711469569843,244.37202801845132 431.0959975053059,219.8655069646302" stroke="black" /><polygon fill="white" opacity="0.5" points="458.13288530430157,155.62797198154868 518.9040024946942,180.1344930353698 494.5149109488085,240.8116854789918" stroke="black" /><polygon fill="white" opacity="0.5" points="458.13288530430157,155.62797198154868 494.5149109488085,240.8116854789918 433.7437937584159,216.30516442517066" stroke="black" /><polygon fill="blue" opacity="0.5" points="526.9556438043062,174.20294418429836 527.8488778236341,167.41815820836283 579.8291421716293,174.26148983502947" stroke="black" /><polygon fill="blue" opacity="0.5" points="526.9556438043062,174.20294418429836 579.8291421716293,174.26148983502947 578.9359081523014,181.046275810965" stroke="black" /><polygon fill="red" opacity="0.5" points="520.1708578283707,225.73851016497053 521.0640918476986,218.953724189035 573.0443561956938,225.79705581570164" stroke="black" /><polygon fill="red" opacity="0.5" points="520.1708578283707,225.73851016497053 573.0443561956938,225.79705581570164 572.1511221763659,232.58184179163717" stroke="black" /><polygon fill="green" opacity="0.5" points="526.9556438043062,174.20294418429836 527.8488778236341,167.41815820836283 521.0640918476986,218.953724189035" stroke="black" /><polygon fill="green" opacity="0.5" points="526.9556438043062,174.20294418429836 521.0640918476986,218.953724189035 520.1708578283707,225.73851016497053" stroke="black" /><polygon fill="purple" opacity="0.5" points="578.9359081523014,181.046275810965 579.8291421716293,174.26148983502947 573.0443561956938,225.79705581570164" stroke="black" /><polygon fill="purple" opacity="0.5" points="578.9359081523014,181.046275810965 573.0443561956938,225.79705581570164 572.1511221763659,232.58184179163717" stroke="black" /><polygon fill="yellow" opacity="0.5" points="526.9556438043062,174.20294418429836 578.9359081523014,181.046275810965 572.1511221763659,232.58184179163717" stroke="black" /><polygon fill="yellow" opacity="0.5" points="526.9556438043062,174.20294418429836 572.1511221763659,232.58184179163717 520.1708578283707,225.73851016497053" stroke="black" /><polygon fill="white" opacity="0.5" points="527.8488778236341,167.41815820836283 579.8291421716293,174.26148983502947 573.0443561956938,225.79705581570164" stroke="black" /><polygon fill="white" opacity="0.5" points="527.8488778236341,167.41815820836283 573.0443561956938,225.79705581570164 521.0640918476986,218.953724189035" stroke="black" /><polygon fill="blue" opacity="0.5" points="601.7907615809735,183.09826377172277 601.4799106153632,180.46235093873753 643.1107582678811,175.35441867398495" stroke="black" /><polygon fill="blue" opacity="0.5" points="601.7907615809735,183.09826377172277 643.1107582678811,175.35441867398495 643.4216092334914,177.9903315069702" stroke="black" /><polygon fill="red" opacity="0.5" points="606.8892417321189,224.64558132601505 606.5783907665086,222.0096684930298 648.2092384190265,216.90173622827723" stroke="black" /><polygon fill="red" opacity="0.5" points="606.8892417321189,224.64558132601505 648.2092384190265,216.90173622827723 648.5200893846368,219.53764906126247" stroke="black" /><polygon fill="green" opacity="0.5" points="601.7907615809735,183.09826377172277 601.4799106153632,180.46235093873753 606.5783907665086,222.0096684930298" stroke="black" /><polygon fill="green" opacity="0.5" points="601.7907615809735,183.09826377172277 606.5783907665086,222.0096684930298 606.8892417321189,224.64558132601505" stroke="black" /><polygon fill="purple" opacity="0.5" points="643.4216092334914,177.9903315069702 643.1107582678811,175.35441867398495 648.2092384190265,216.90173622827723" stroke="black" /><polygon fill="purple" opacity="0.5" points="643.4216092334914,177.9903315069702 648.2092384190265,216.90173622827723 648.5200893846368,219.53764906126247" stroke="black" /><polygon fill="yellow" opacity="0.5" points="601.7907615809735,183.09826377172277 643.4216092334914,177.9903315069702 648.5200893846368,219.53764906126247" stroke="black" /><polygon fill="yellow" opacity="0.5" points="601.7907615809735,183.09826377172277 648.5200893846368,219.53764906126247 606.8892417321189,224.64558132601505" stroke="black" /><polygon fill="white" opacity="0.5" points="601.4799106153632,180.46235093873753 643.1107582678811,175.35441867398495 648.2092384190265,216.90173622827723" stroke="black" /><polygon fill="white" opacity="0.5" points="601.4799106153632,180.46235093873753 648.2092384190265,216.90173622827723 606.5783907665086,222.0096684930298" stroke="black" /><polygon fill="blue" opacity="0.5" points="678.4924491732518,187.38217200869673 679.0563519519574,191.69096394243562 710.8774640608866,181.07872991031888" stroke="black" /><polygon fill="blue" opacity="0.5" points="678.4924491732518,187.38217200869673 710.8774640608866,181.07872991031888 710.3135612821811,176.76993797657997" stroke="black" /><polygon fill="red" opacity="0.5" points="689.1225359391134,218.92127008968112 689.6864387178189,223.23006202342003 721.5075508267482,212.61782799130327" stroke="black" /><polygon fill="red" opacity="0.5" points="689.1225359391134,218.92127008968112 721.5075508267482,212.61782799130327 720.9436480480426,208.30903605756438" stroke="black" /><polygon fill="green" opacity="0.5" points="678.4924491732518,187.38217200869673 679.0563519519574,191.69096394243562 689.6864387178189,223.23006202342003" stroke="black" /><polygon fill="green" opacity="0.5" points="678.4924491732518,187.38217200869673 689.6864387178189,223.23006202342003 689.1225359391134,218.92127008968112" stroke="black" /><polygon fill="purple" opacity="0.5" points="710.3135612821811,176.76993797657997 710.8774640608866,181.07872991031888 721.5075508267482,212.61782799130327" stroke="black" /><polygon fill="purple" opacity="0.5" points="710.3135612821811,176.76993797657997 721.5075508267482,212.61782799130327 720.9436480480426,208.30903605756438" stroke="black" /><polygon fill="yellow" opacity="0.5" points="678.4924491732518,187.38217200869673 710.3135612821811,176.76993797657997 720.9436480480426,208.30903605756438" stroke="black" /><polygon fill="yellow" opacity="0.5" points="678.4924491732518,187.38217200869673 720.9436480480426,208.30903605756438 689.1225359391134,218.92127008968112" stroke="black" /><polygon fill="white" opacity="0.5" points="679.0563519519574,191.69096394243562 710.8774640608866,181.07872991031888 721.5075508267482,212.61782799130327" stroke="black" /><polygon fill="white" opacity="0.5" points="679.0563519519574,191.69096394243562 721.5075508267482,212.61782799130327 689.6864387178189,223.23006202342003" stroke="black" /><polygon fill="blue" opacity="0.5" points="756.1198083253635,189.03040307315248 758.6707783900813,199.65232793297983 783.1390518961289,188.82293095384472" stroke="black" /><polygon fill="blue" opacity="0.5" points="756.1198083253635,189.03040307315248 783.1390518961289,188.82293095384472 780.588081831411,178.20100609401737" stroke="black" /><polygon fill="red" opacity="0.5" points="766.8609481038711,211.17706904615528 769.411918168589,221.79899390598263 793.8801916746365,210.96959692684752" stroke="black" /><polygon fill="red" opacity="0.5" points="766.8609481038711,211.17706904615528 793.8801916746365,210.96959692684752 791.3292216099187,200.34767206702017" stroke="black" /><polygon fill="green" opacity="0.5" points="756.1198083253635,189.03040307315248 758.6707783900813,199.65232793297983 769.411918168589,221.79899390598263" stroke="black" /><polygon fill="green" opacity="0.5" points="756.1198083253635,189.03040307315248 769.411918168589,221.79899390598263 766.8609481038711,211.17706904615528" stroke="black" /><polygon fill="purple" opacity="0.5" points="780.588081831411,178.20100609401737 783.1390518961289,188.82293095384472 793.8801916746365,210.96959692684752" stroke="black" /><polygon fill="purple" opacity="0.5" points="780.588081831411,178.20100609401737 793.8801916746365,210.96959692684752 791.3292216099187,200.34767206702017" stroke="black" /><polygon fill="yellow" opacity="0.5" points="756.1198083253635,189.03040307315248 780.588081831411,178.20100609401737 791.3292216099187,200.34767206702017" stroke="black" /><polygon fill="yellow" opacity="0.5" points="756.1198083253635,189.03040307315248 791.3292216099187,200.34767206702017 766.8609481038711,211.17706904615528" stroke="black" /><polygon fill="white" opacity="0.5" points="758.6707783900813,199.65232793297983 783.1390518961289,188.82293095384472 793.8801916746365,210.96959692684752" stroke="black" /><polygon fill="white" opacity="0.5" points="758.6707783900813,199.65232793297983 793.8801916746365,210.96959692684752 769.411918168589,221.79899390598263" stroke="black" /></svg>